<svg id="Layer_1" data-name="Layer 1" xmlns="http://www.w3.org/2000/svg" viewBox="0 0 200 200"><defs><style>.cls-1,.cls-2{fill:#515151;}.cls-1{fill-rule:evenodd;}</style></defs><g id="_2564382093424" data-name=" 2564382093424"><path class="cls-1" d="M156.29,70.22V44.66h0l-.23.53c-.26.57-.52,1.13-.79,1.69l0,.12c-.29.58-.57,1.16-.87,1.74h0l-.23.46v0l-.74,1.42c-.12.2-.22.41-.34.61-.22.41-.44.81-.67,1.2s-.31.56-.47.83-.41.7-.62,1l-.61,1-.51.81q-.34.56-.69,1.08l-.47.7c-.28.43-.58.86-.87,1.29l-.32.45c-.32.47-.66.94-1,1.4l-.31.42L145.37,63l-.19.25c-.4.52-.82,1-1.23,1.53l-.18.22c-.43.53-.86,1-1.32,1.57l-.1.12c-.47.55-.94,1.09-1.43,1.63l-.08.09c-.49.54-1,1.09-1.51,1.62l0,0c-.53.55-1.07,1.1-1.61,1.64s-1,1-1.48,1.44l-.39.37c-.44.42-.88.83-1.33,1.23l-.2.18c-.49.45-1,.89-1.51,1.33l-.41.35c-.41.36-.84.71-1.26,1.06l-.33.27c-.51.41-1,.83-1.55,1.23l-.36.28c-.45.35-.91.69-1.37,1l-.32.25-1.59,1.13-.44.31L124,83l-.53.35c-.51.34-1,.67-1.55,1l-.49.3-1.23.74-.53.32-1.65,1-.32.17-1.36.74-.61.31c-.5.27-1,.53-1.52.78l-.48.24-1.36.65-.64.3-1.32.59-.64.27-1.38.59-.76.3-1.17.46-.6.23-1.61.58-.74.26-1.15.38-.65.22-1.6.49-.84.25-1,.28-.85.23-1.55.4-.91.21-.83.2-1,.22-.58.12c-.67.14-1.33.27-2,.39l-.6.12-1.17.19-.37.06-2.25.33-.53.07-1.17.14-.48.05-2.4.23-.23,0L80,97.77l-.27,0c-1.38.08-2.77.14-4.16.15h-.17c-1.41,0-2.81,0-4.22,0h-.2c-1.4-.05-2.8-.14-4.2-.26h-.18c-1.42-.12-2.85-.27-4.26-.46h-.08a91.54,91.54,0,0,1-13-2.71h0a56.48,56.48,0,0,0,50.76,32h0A56.42,56.42,0,0,0,156.29,70.22ZM113.07,14H43.71V55.63a89.4,89.4,0,0,0,56.85-26A89.91,89.91,0,0,0,113.07,14ZM126.68,36.8l-.1.14-.22.31c-.36.51-.72,1-1.09,1.51l-.18.25c-.38.5-.76,1-1.15,1.5l-.15.19c-.39.5-.79,1-1.19,1.49l-.2.24c-.42.51-.84,1-1.28,1.52l-.1.11c-.44.52-.89,1-1.35,1.53l-.13.14c-.46.51-.92,1-1.39,1.5l-.1.1c-.5.52-1,1-1.51,1.55s-1,.95-1.46,1.42l-.23.22c-.47.44-.94.88-1.42,1.31l-.27.25-1.46,1.3-.18.14q-.67.58-1.35,1.14l-.3.25c-.48.4-1,.78-1.45,1.16l-.33.26-1.46,1.11-.33.24c-.45.34-.9.66-1.36,1l-.23.16-1.47,1-.45.31-1.46,1-.37.23-1.42.88-.44.26c-.44.27-.88.52-1.32.78l-.44.25c-.48.28-1,.54-1.46.81l-.57.31L94,65.33l-.6.3-1.12.55-.54.26-1.4.65-.71.32L88.3,68l-.82.35-.9.36-1.11.44-.93.35-.81.3-1.34.47c-.27.1-.53.19-.8.27s-.55.18-.82.27l-1.4.44-.67.2c-.47.15-1,.28-1.43.42l-.71.19-1,.28-.51.13-1.73.41-.47.11c-.65.15-1.31.28-2,.42l-.27.05c-1.15.23-2.3.43-3.46.62l-.23,0c-.73.12-1.47.22-2.2.31l-.12,0c-1.19.16-2.39.28-3.59.39h-.06L58.56,75h-.07a90.12,90.12,0,0,1-14.6-.29h0q-.18-2.22-.18-4.47V63.39A89.62,89.62,0,0,0,108.1,37.12a89.75,89.75,0,0,0,15-19.82,21.52,21.52,0,0,0,3.59,19.5Z"/><path class="cls-1" d="M134.94,43.26l-.55.8-.12.18c-.39.56-.79,1.12-1.2,1.67l-.12.17c-.42.56-.84,1.12-1.27,1.67l-.08.11c-.43.56-.87,1.11-1.32,1.66l-.11.14-1.36,1.62-.1.12c-.46.53-.93,1.07-1.41,1.6l-.12.13c-.48.53-1,1.06-1.47,1.58l-.08.08c-.51.54-1,1.08-1.57,1.61l-1.48,1.45-.3.28c-.48.46-1,.9-1.45,1.35l-.32.28L119.16,61l-.23.2c-.5.43-1,.85-1.51,1.26l-.36.29c-.51.42-1,.84-1.57,1.24l-.12.1c-.5.39-1,.77-1.52,1.15l-.29.21c-.51.38-1,.74-1.54,1.11l-.44.3-1.37.92-.53.35c-.43.29-.87.57-1.31.84l-.47.3c-.52.32-1,.64-1.57,1l-.41.25-1.41.8-.33.19c-.52.28-1,.57-1.57.84l-.56.3c-.51.27-1,.53-1.55.79l-.49.24-1.28.61-.55.26c-.51.24-1,.47-1.54.69l-.64.28-1.24.52-.88.36-1.15.44-.67.26-1.53.55-.69.24-1.2.4-.79.26-1.33.41-.79.23-1.31.37c-.33.09-.67.19-1,.27l-.84.22-1.41.34-.86.2-1,.23-.6.12c-.61.13-1.23.25-1.85.36l-.53.1c-1.2.21-2.4.39-3.61.56l-.34,0L70,82.18h-.14l-1.29.13h0c-.8.07-1.61.13-2.42.18l-.43,0c-1.24.08-2.49.12-3.75.14h0q-1.27,0-2.55,0h-.11c-1.29,0-2.58-.06-3.87-.13h-.17q-3.23-.19-6.43-.61l-.13,0c-1.29-.17-2.57-.37-3.85-.59h0a55.36,55.36,0,0,0,1.86,6.91h.06l1.36.3,1,.2.74.14q.84.16,1.68.3l.69.12,1.05.16.68.1,1,.14,1.41.17,1,.11.75.07c.69.07,1.39.13,2.08.18l.31,0,1.06.07.7,0,1,.05,1.43,0,1,0h1.73l1.45,0,1,0,.75,0,1,0L73,90.21l.92-.07.88-.07.9-.09,1.47-.16.89-.11.9-.11.84-.12,1.52-.24.83-.14.94-.17.84-.16c.5-.09,1-.2,1.5-.3l.81-.18,1-.21.8-.19,1.54-.39.63-.17,1.2-.33.63-.19,1.58-.47.65-.21,1.11-.36.65-.23L97.55,85l.56-.21,1.2-.46.63-.25c.52-.2,1-.41,1.55-.63l.55-.23c.39-.17.79-.34,1.17-.52l.58-.25,1.58-.74.44-.21,1.28-.63.53-.27,1.57-.82.36-.2,1.34-.74.43-.24,1.6-.94.29-.18,1.36-.84.45-.29,1.55-1,.23-.15,1.36-.94.43-.31c.52-.36,1-.73,1.54-1.11l.14-.1,1.42-1.09.39-.3,1.49-1.19.17-.14,1.35-1.13.37-.33c.49-.43,1-.86,1.47-1.3l.07-.06,1.38-1.28.37-.36c.48-.45.95-.91,1.42-1.38s1-1,1.49-1.52l.16-.17L133.15,61l.15-.17c.47-.51.92-1,1.37-1.55l.1-.11c.42-.49.84-1,1.25-1.48l.21-.25c.41-.51.82-1,1.22-1.53l.07-.08c.41-.53.82-1.06,1.21-1.6l.21-.27L140,52.55l.19-.26c.34-.5.68-1,1-1.5l.27-.39c.3-.46.61-.93.9-1.39l.24-.36c.3-.49.61-1,.9-1.47l.18-.29c.32-.53.63-1.07.94-1.6l.12-.22-9.81-1.81Z"/><path class="cls-2" d="M3.66,149.22v-7.05c0-.61,0-1.09-.05-1.46v-.07a1.8,1.8,0,0,0-.22-.92,1.16,1.16,0,0,0-.8-.43.47.47,0,0,0-.19,0l-.23,0-.2,0H1.79a.2.2,0,0,1-.13,0,.11.11,0,0,1-.06-.1.16.16,0,0,1,.09-.16,1.07,1.07,0,0,1,.29,0h.8l.44,0h.44l.69,0h.71l.64,0H7.05a1,1,0,0,1,.29,0,.16.16,0,0,1,.09.16.1.1,0,0,1-.06.1.2.2,0,0,1-.13,0H7.17l-.21,0-.31,0a.84.84,0,0,0-.65.4,2.4,2.4,0,0,0-.23.95v.07c0,.37,0,.85,0,1.46v6.91a11,11,0,0,0,.51,3.86,5.73,5.73,0,0,0,1.26,2c.15.14.29.27.43.38a3.49,3.49,0,0,0,.43.28,3.83,3.83,0,0,0,1.3.51,7.24,7.24,0,0,0,1.43.13,4.81,4.81,0,0,0,2.1-.47,5,5,0,0,0,1.65-1.23,5.49,5.49,0,0,0,1.1-2.5,18.55,18.55,0,0,0,.27-3.31v-6.58c0-.61,0-1.09,0-1.46v-.07a1.89,1.89,0,0,0-.23-.92,1.16,1.16,0,0,0-.79-.43.5.5,0,0,0-.19,0l-.24,0-.2,0h-.18a.2.2,0,0,1-.13,0,.11.11,0,0,1-.06-.1.16.16,0,0,1,.09-.16,1.07,1.07,0,0,1,.29,0h1.61l.61,0h.58l.5,0h.5a2.17,2.17,0,0,1,.36,0H19a1,1,0,0,1,.28,0,.15.15,0,0,1,.1.16.11.11,0,0,1-.06.1.2.2,0,0,1-.13,0h-.29l-.31.06a.9.9,0,0,0-.65.41,2.36,2.36,0,0,0-.22.94v.07a14.55,14.55,0,0,0-.05,1.46v6.13c0,.27,0,.53,0,.78s0,.51,0,.78a13,13,0,0,1-.54,3,5.46,5.46,0,0,1-1.59,2.5,6.12,6.12,0,0,1-.49.4c-.17.13-.33.24-.49.34a6.68,6.68,0,0,1-2.07.8,10,10,0,0,1-1.87.19c-.28,0-.72,0-1.31-.09a7.69,7.69,0,0,1-1.87-.48,6.64,6.64,0,0,1-.88-.45,3.86,3.86,0,0,1-.82-.64,6.48,6.48,0,0,1-1.48-2.24,10.75,10.75,0,0,1-.59-4v0Z"/><path class="cls-2" d="M29.81,139.88v10.05c0,1.16,0,2.18,0,3.07a20.4,20.4,0,0,0,.11,2.1,2.64,2.64,0,0,0,.22.88.86.86,0,0,0,.71.43l.2,0h.22l.37,0h.27a.22.22,0,0,1,.16.05.16.16,0,0,1,0,.09.12.12,0,0,1-.09.13.75.75,0,0,1-.29,0h-1.9l-.7,0h-.64l-.63,0H26.49a.75.75,0,0,1-.29,0,.12.12,0,0,1-.09-.13.11.11,0,0,1,.05-.09.18.18,0,0,1,.14-.05h.36l.18,0,.17,0a.63.63,0,0,0,.49-.43,5,5,0,0,0,.2-.88,20.4,20.4,0,0,0,.11-2.1c0-.89,0-1.91,0-3V139.88l-3.52.05a7.44,7.44,0,0,0-1.61.2,1.37,1.37,0,0,0-.8.58l-.28.46c-.05.11-.1.2-.13.28a.54.54,0,0,1-.1.19.23.23,0,0,1-.14,0,.09.09,0,0,1-.08-.06.33.33,0,0,1,0-.15,2.89,2.89,0,0,1,.07-.45c0-.24.1-.5.16-.78,0,0,0,0,0-.05s0,0,0-.05c.06-.27.12-.51.16-.73a3.47,3.47,0,0,1,.1-.4.54.54,0,0,0,0-.1.36.36,0,0,1,0-.09.48.48,0,0,1,.07-.18c0-.06.06-.08.1-.08a.37.37,0,0,1,.16,0l.24.1.27.08.37.06.28,0h.29l.77,0,.53,0,8.93,0a4.94,4.94,0,0,0,.77,0l.6,0,.16,0h.15l.43-.08a1,1,0,0,1,.24,0,.09.09,0,0,1,.1.08,1.27,1.27,0,0,1,0,.2c0,.15,0,.32,0,.53s0,.42,0,.64v.3c0,.27,0,.51,0,.73s0,.35,0,.41a.49.49,0,0,1,0,.24.15.15,0,0,1-.12.07.13.13,0,0,1-.13-.08.89.89,0,0,1-.06-.32l0-.29a1.27,1.27,0,0,0-.64-.89,5,5,0,0,0-2.28-.39l-3-.07Z"/><path class="cls-2" d="M46.51,139.88v10.05c0,1.16,0,2.18,0,3.07a17.89,17.89,0,0,0,.11,2.1,2.42,2.42,0,0,0,.22.88.84.84,0,0,0,.7.43l.2,0H48l.36,0h.28c.08,0,.13,0,.15.05a.12.12,0,0,1,0,.09.13.13,0,0,1-.1.13.69.69,0,0,1-.28,0h-1.9l-.7,0H45.2l-.63,0H43.19a.69.69,0,0,1-.28,0,.13.13,0,0,1-.1-.13.14.14,0,0,1,0-.09.2.2,0,0,1,.14-.05h.36l.19,0,.17,0a.63.63,0,0,0,.48-.43,3.7,3.7,0,0,0,.2-.88,17.89,17.89,0,0,0,.11-2.1c0-.89,0-1.91,0-3V139.88l-3.51.05a7.26,7.26,0,0,0-1.61.2,1.43,1.43,0,0,0-.81.58c-.13.21-.22.36-.27.46a2.16,2.16,0,0,0-.13.28.52.52,0,0,1-.11.19.2.2,0,0,1-.13,0,.09.09,0,0,1-.08-.06.24.24,0,0,1,0-.15,2.89,2.89,0,0,1,.07-.45c.05-.24.11-.5.17-.78a.09.09,0,0,1,0-.05.09.09,0,0,0,0-.05c.06-.27.12-.51.17-.73l.09-.4,0-.1,0-.09a.75.75,0,0,1,.07-.18c0-.06.07-.08.1-.08a.41.41,0,0,1,.17,0l.23.1a1.58,1.58,0,0,0,.28.08l.36.06.29,0h.28l.78,0,.53,0,8.92,0a4.94,4.94,0,0,0,.77,0l.61,0,.15,0h.16l.42-.08a1,1,0,0,1,.24,0,.1.1,0,0,1,.11.08c0,.06,0,.13,0,.2s0,.32,0,.53,0,.42,0,.64v.3c0,.27,0,.51,0,.73s0,.35,0,.41a.48.48,0,0,1,0,.24.13.13,0,0,1-.12.07.13.13,0,0,1-.13-.08,1.82,1.82,0,0,1-.06-.32l0-.29a1.3,1.3,0,0,0-.64-.89,5,5,0,0,0-2.28-.39l-3-.07Z"/><path class="cls-2" d="M54.84,154.2l1-2.61,4.41-12.13c.11-.3.2-.52.26-.64a.56.56,0,0,1,.19-.24s0,0,0,0h.09s0,0,0,0,.13.08.19.2a4.41,4.41,0,0,1,.27.63c.11.27.47,1.19,1.08,2.77s1.26,3.29,2,5.12l1.41,3.61c.46,1.15.82,2.09,1.11,2.82A6.06,6.06,0,0,0,68,155.78a2.6,2.6,0,0,0,.89.58,2.44,2.44,0,0,0,.52.12l.43,0,.18,0s0,.06,0,.12,0,.11-.14.13a1.06,1.06,0,0,1-.33,0H68.32c-.66,0-1.38,0-2.16-.05h-.49l-.39,0c-.09,0-.14,0-.14-.11a.14.14,0,0,1,0-.11l.12-.06a.24.24,0,0,0,.13-.1.44.44,0,0,0,.06-.25.24.24,0,0,0,0-.12.88.88,0,0,0-.06-.17L63.22,150a.28.28,0,0,0-.07-.09.26.26,0,0,0-.14,0l-5.1,0a.27.27,0,0,0-.15.08.56.56,0,0,0-.09.14l-1.43,4.17a6.19,6.19,0,0,0-.24.88,3.37,3.37,0,0,0-.09.73.54.54,0,0,0,.23.47,1.26,1.26,0,0,0,.48.2l.1,0h.09l.24,0a.38.38,0,0,1,.18.06.1.1,0,0,1,.06.1.12.12,0,0,1-.1.13.62.62,0,0,1-.26,0h-1l-.49,0h-.69l-.65,0H52.42a1,1,0,0,1-.34,0,.13.13,0,0,1-.11-.13.1.1,0,0,1,.06-.1.25.25,0,0,1,.16,0h.16l.19,0,.16,0h.15a1.76,1.76,0,0,0,1.26-.73,6.16,6.16,0,0,0,.73-1.5v0ZM58.17,149H62.7c.06,0,.1,0,.1,0a.17.17,0,0,0,0-.12l-2.25-6.45c-.06-.16-.12-.23-.18-.23s-.11.08-.18.25l-2.09,6.41v0h0l0,0h0a.07.07,0,0,0,0,.07l.06,0Z"/><path class="cls-2" d="M73.45,149.93v-7.76c0-.61,0-1.09,0-1.46v-.07a1.79,1.79,0,0,0-.23-.92,1.13,1.13,0,0,0-.79-.43.5.5,0,0,0-.19,0l-.24,0-.2,0h-.18a.22.22,0,0,1-.13,0,.11.11,0,0,1-.06-.1.15.15,0,0,1,.1-.16,1,1,0,0,1,.28,0h.81l.46,0h.44l.65,0h.76l.8,0h2.63a9.81,9.81,0,0,1,1.72.29,4.63,4.63,0,0,1,1.58.73,2.61,2.61,0,0,1,.3.24,3.4,3.4,0,0,1,.32.33,5.54,5.54,0,0,1,.7,1.12,3.61,3.61,0,0,1,.32,1.53v.28a1.07,1.07,0,0,1,0,.25,6.09,6.09,0,0,1-.75,2.43,10.28,10.28,0,0,1-2.12,2.54c1,1.25,1.89,2.39,2.71,3.42s1.57,1.91,2.25,2.65A5.51,5.51,0,0,0,87,156.05a6,6,0,0,0,1.19.38l.58.06h.34a.25.25,0,0,1,.16.05.12.12,0,0,1,.06.09c0,.07,0,.11-.12.13a1.53,1.53,0,0,1-.45,0H87.09a11.17,11.17,0,0,1-1.5-.08,3.48,3.48,0,0,1-1-.32v0h0a3.42,3.42,0,0,1-.4-.26c-.13-.09-.25-.2-.38-.31a8.41,8.41,0,0,1-1.12-1.21l-1.3-1.7-.2-.25-.2-.27-.15-.19-.14-.22c-.41-.52-.79-1-1.13-1.5s-.6-.84-.79-1.08l0,0,0,0-.11,0a.27.27,0,0,0-.13,0l-2.92-.08c-.06,0-.11,0-.13.08a.26.26,0,0,0,0,.14v.54c0,1.16,0,2.18,0,3.07a17.89,17.89,0,0,0,.11,2.1,2.42,2.42,0,0,0,.22.88.84.84,0,0,0,.7.43l.2,0h.23l.37,0h.27c.08,0,.13,0,.15.05a.12.12,0,0,1,0,.09.12.12,0,0,1-.1.13.66.66,0,0,1-.28,0h-1.9l-.7,0H74.1l-.6,0H73l-.49,0h-.43a.66.66,0,0,1-.28,0,.12.12,0,0,1-.1-.13.11.11,0,0,1,.05-.09.2.2,0,0,1,.14-.05h.36l.19,0,.16,0a.63.63,0,0,0,.49-.43,5,5,0,0,0,.2-.88,20.4,20.4,0,0,0,.11-2.1c0-.89,0-1.91,0-3v0Zm1.9-9.88v7.77a.47.47,0,0,0,0,.19.26.26,0,0,0,.13.12,3,3,0,0,0,.92.25,9.8,9.8,0,0,0,1.38.13h.59l.41-.06a3.24,3.24,0,0,0,.49-.13,1.7,1.7,0,0,0,.48-.25,3.2,3.2,0,0,0,1-1.36,5.67,5.67,0,0,0,.43-2.31,5.1,5.1,0,0,0-1.12-3.49,3.81,3.81,0,0,0-3-1.25,9.46,9.46,0,0,0-1,0c-.3,0-.51.07-.63.1a.18.18,0,0,0-.14.09.29.29,0,0,0-.05.19v0Z"/><path class="cls-2" d="M89.51,154.2l1-2.61,4.42-12.13c.11-.3.2-.52.26-.64a.5.5,0,0,1,.19-.24s0,0,0,0h.1s0,0,0,0,.13.08.19.2a4.7,4.7,0,0,1,.26.63c.11.27.47,1.19,1.08,2.77s1.27,3.29,2,5.12l1.41,3.61,1.11,2.82a6.06,6.06,0,0,0,1.15,2.05,2.51,2.51,0,0,0,.89.58,2.31,2.31,0,0,0,.52.12l.43,0,.17,0a.12.12,0,0,1,.06.12c0,.07,0,.11-.14.13a1.11,1.11,0,0,1-.33,0H103c-.66,0-1.38,0-2.16-.05h-.5l-.38,0c-.09,0-.14,0-.14-.11a.14.14,0,0,1,0-.11l.12-.06a.29.29,0,0,0,.13-.1.44.44,0,0,0,.06-.25.24.24,0,0,0,0-.12.88.88,0,0,0-.06-.17L97.89,150l-.07-.09a.26.26,0,0,0-.14,0l-5.11,0a.27.27,0,0,0-.14.08.56.56,0,0,0-.09.14l-1.43,4.17a8.09,8.09,0,0,0-.25.88,4.06,4.06,0,0,0-.08.73.54.54,0,0,0,.23.47,1.26,1.26,0,0,0,.48.2l.1,0h.09l.24,0a.38.38,0,0,1,.18.06.1.1,0,0,1,.06.1.12.12,0,0,1-.1.13.62.62,0,0,1-.26,0h-1l-.49,0h-.69l-.65,0H87.09a.94.94,0,0,1-.34,0,.13.13,0,0,1-.11-.13.1.1,0,0,1,.06-.1.24.24,0,0,1,.15,0H87l.19,0,.15,0h.16a1.78,1.78,0,0,0,1.26-.73,6.16,6.16,0,0,0,.73-1.5v0ZM92.84,149h4.53c.06,0,.1,0,.1,0a.17.17,0,0,0,0-.12l-2.25-6.45c-.07-.16-.13-.23-.18-.23s-.12.08-.18.25l-2.09,6.41v0h0l0,0h0a.07.07,0,0,0,0,.07l.06,0Z"/><path class="cls-2" d="M108.45,142.21l.31,11.37a8.15,8.15,0,0,0,.24,2.06,1.09,1.09,0,0,0,.68.72l.13,0,.13,0a3.84,3.84,0,0,0,.55.08h.38a.2.2,0,0,1,.14,0,.11.11,0,0,1,0,.1.13.13,0,0,1-.11.13.89.89,0,0,1-.32,0H109l-.55,0h-.58l-.51,0h-1.47a.7.7,0,0,1-.27,0c-.08,0-.11-.06-.11-.13s0-.08.05-.1a.18.18,0,0,1,.14,0H106l.4-.06.13,0,.13,0c.3-.08.49-.33.58-.76a12.79,12.79,0,0,0,.13-2.25l0-1.5V139.72a6,6,0,0,1,0-.92c0-.16.11-.24.21-.24a.36.36,0,0,1,.2.1,2,2,0,0,1,.25.25l.05.05,0,0,.17.18a.67.67,0,0,0,.14.15c.17.21,1,1.13,2.54,2.75l5,5.41c.14.14.28.29.41.44s.27.29.39.44l.15.14.14.14,2.81,3.08c.88,1,1.48,1.61,1.79,1.95l-.26-12.09a5.61,5.61,0,0,0-.2-1.62,1,1,0,0,0-.72-.61l-.17,0h-.17l-.48-.06h-.35a.19.19,0,0,1-.15-.05.21.21,0,0,1,0-.12c0-.08,0-.12.13-.14a1.73,1.73,0,0,1,.35,0h1.54l.58,0h.63l.45,0h1.28a1.37,1.37,0,0,1,.31,0,.13.13,0,0,1,.12.14.13.13,0,0,1-.07.12.36.36,0,0,1-.19.05h-.23l-.34.06a.87.87,0,0,0-.74.58,6,6,0,0,0-.14,1.53l0,1.75,0,12.14a13.14,13.14,0,0,1,0,1.44c0,.16-.09.24-.17.24a1,1,0,0,1-.46-.27c-.22-.18-.64-.59-1.27-1.22-.1-.09-.6-.6-1.51-1.53s-1.9-1.95-3-3.07l-.09-.09-.1-.1c-.25-.28-.51-.56-.77-.83s-.52-.53-.77-.8l-.09-.1a.18.18,0,0,1-.07-.09c-1.35-1.46-2.6-2.82-3.75-4.1s-1.92-2.13-2.28-2.54v0Z"/><path class="cls-2" d="M138.63,157.14a14.23,14.23,0,0,1-4.57-.64,9.39,9.39,0,0,1-3.28-1.9,7.72,7.72,0,0,1-1.62-1.95,8.87,8.87,0,0,1-.87-2.12A8.23,8.23,0,0,1,128,149a11.93,11.93,0,0,1-.09-1.43,9.67,9.67,0,0,1,.21-1.83,9.25,9.25,0,0,1,.72-2.2,9.72,9.72,0,0,1,.74-1.27,7.88,7.88,0,0,1,1-1.2,8.84,8.84,0,0,1,2.79-1.8,11.46,11.46,0,0,1,4.45-.73c.33,0,.7,0,1.1,0s.81,0,1.22.09a5.4,5.4,0,0,1,.58.08l.57.09,1.26.21c.39.07.78.11,1.15.15a.4.4,0,0,1,.25.08.24.24,0,0,1,.06.18c0,.06,0,.15,0,.27s0,.29-.05.51a1.9,1.9,0,0,0,0,.25,2.53,2.53,0,0,0,0,.29,3.48,3.48,0,0,0,0,.47c0,.16,0,.33,0,.5v.86c0,.14,0,.26,0,.37s0,.18,0,.24a1.29,1.29,0,0,1-.06.38.15.15,0,0,1-.3,0,1.18,1.18,0,0,1,0-.37V143a3.49,3.49,0,0,0-.31-1.22,2.44,2.44,0,0,0-.69-.93,5.17,5.17,0,0,0-1.89-.95,11.37,11.37,0,0,0-6.16,0,6.63,6.63,0,0,0-1.86,1l-.17.14-.14.15a5.84,5.84,0,0,0-1.72,2.81,13.14,13.14,0,0,0-.42,3.4,8.75,8.75,0,0,0,2.39,6,8,8,0,0,0,6.2,2.64,11.24,11.24,0,0,0,2.37-.22,3.35,3.35,0,0,0,1.76-1,3.65,3.65,0,0,0,.31-.43c.09-.16.18-.32.26-.5s.15-.42.2-.61a3.53,3.53,0,0,0,.11-.45,1,1,0,0,1,.09-.27.16.16,0,0,1,.15-.09c.06,0,.1,0,.13.11a.9.9,0,0,1,0,.25s0,.24-.07.58-.1.7-.17,1.1l-.09.49c0,.16-.07.32-.1.46s0,.15,0,.21,0,.13,0,.19a.93.93,0,0,0,0,.13.35.35,0,0,1,0,.11.68.68,0,0,1-.11.19.7.7,0,0,1-.18.14l-.1.05-.16.07a7.41,7.41,0,0,1-1.36.32,16.15,16.15,0,0,1-1.72.18h-1.19Z"/><path class="cls-2" d="M164.09,145.76v4.17c0,1.16,0,2.18,0,3.07a20.4,20.4,0,0,0,.11,2.1,2.41,2.41,0,0,0,.23.88.83.83,0,0,0,.7.43l.2,0h.22l.37,0h.27a.22.22,0,0,1,.16.05.18.18,0,0,1,0,.09.13.13,0,0,1-.1.13.71.71,0,0,1-.29,0h-1.89l-.7,0h-.64l-.63,0h-1.38a.75.75,0,0,1-.29,0,.12.12,0,0,1-.09-.13.14.14,0,0,1,.05-.09.2.2,0,0,1,.14-.05h.36l.18,0,.17,0a.63.63,0,0,0,.49-.43,5,5,0,0,0,.2-.88,20.4,20.4,0,0,0,.11-2.1c0-.89,0-1.91,0-3v-2.51s0-.06,0-.09a.16.16,0,0,0-.09,0l-10.09,0-.09,0s-.05.06-.05.12v2.46c0,1.16,0,2.18,0,3.07a17.89,17.89,0,0,0,.11,2.1,2.42,2.42,0,0,0,.22.88.84.84,0,0,0,.7.43l.21,0h.22l.37,0h.27a.22.22,0,0,1,.16.05.16.16,0,0,1,0,.09.12.12,0,0,1-.09.13.75.75,0,0,1-.29,0h-1.9l-.7,0h-.64l-.63,0h-1.37a.71.71,0,0,1-.29,0,.12.12,0,0,1-.09-.13.11.11,0,0,1,.05-.09.18.18,0,0,1,.14-.05h.35l.19,0,.17,0a.63.63,0,0,0,.49-.43,5,5,0,0,0,.2-.88,18.3,18.3,0,0,0,.1-2.1c0-.89,0-1.91,0-3v-7.79c0-.61,0-1.09-.05-1.46v-.07a1.79,1.79,0,0,0-.23-.92,1.16,1.16,0,0,0-.79-.43.5.5,0,0,0-.19,0l-.24,0-.2,0h-.18a.2.2,0,0,1-.13,0,.11.11,0,0,1-.06-.1.15.15,0,0,1,.1-.16.94.94,0,0,1,.28,0h.81l.46,0h.44l.65,0h.64l.63,0h1.38a.94.94,0,0,1,.28,0,.15.15,0,0,1,.1.16.11.11,0,0,1-.06.1.2.2,0,0,1-.13,0h-.07l-.22,0-.31,0a.9.9,0,0,0-.65.41,2.36,2.36,0,0,0-.22.94v.07a14.55,14.55,0,0,0-.05,1.46v4.09c0,.08,0,.12.05.14a.15.15,0,0,0,.09,0l10.09,0a.07.07,0,0,0,.09,0,.12.12,0,0,0,0-.12v-4.11c0-.61,0-1.09,0-1.46v-.07a1.91,1.91,0,0,0-.22-.92,1.18,1.18,0,0,0-.8-.43.5.5,0,0,0-.19,0l-.24,0-.2,0h-.18a.22.22,0,0,1-.13,0,.11.11,0,0,1-.06-.1.17.17,0,0,1,.1-.16,1,1,0,0,1,.28,0h.81l.46,0h.44l.66,0h.64l.62,0h1.38a1.07,1.07,0,0,1,.29,0,.16.16,0,0,1,.09.16.11.11,0,0,1-.06.1.2.2,0,0,1-.13,0h-.07l-.22,0-.3,0a.86.86,0,0,0-.65.41,2.34,2.34,0,0,0-.23.94v.07c0,.37,0,.85,0,1.46v3.59Z"/><path class="cls-2" d="M170.57,154.2l1-2.61L176,139.46a6.47,6.47,0,0,1,.27-.64.45.45,0,0,1,.19-.24s0,0,0,0h.1s0,0,0,0,.13.08.19.2a6.61,6.61,0,0,1,.26.63c.11.27.47,1.19,1.08,2.77s1.26,3.29,2,5.12l1.41,3.61c.45,1.15.82,2.09,1.1,2.82a6.24,6.24,0,0,0,1.15,2.05,2.6,2.6,0,0,0,.89.58,2.53,2.53,0,0,0,.53.12l.42,0,.18,0a.12.12,0,0,1,.06.12c0,.07-.05.11-.14.13a1.18,1.18,0,0,1-.34,0h-1.25c-.67,0-1.39,0-2.16-.05h-.5l-.38,0c-.09,0-.14,0-.14-.11a.12.12,0,0,1,0-.11l.11-.06a.26.26,0,0,0,.14-.1.54.54,0,0,0,.06-.25.45.45,0,0,0,0-.12.88.88,0,0,0-.06-.17L179,150a.32.32,0,0,0-.08-.09.24.24,0,0,0-.14,0l-5.1,0a.27.27,0,0,0-.14.08,1,1,0,0,0-.1.14L172,154.2a8.09,8.09,0,0,0-.25.88,4.06,4.06,0,0,0-.08.73.54.54,0,0,0,.22.47,1.3,1.3,0,0,0,.49.2l.09,0h.1l.24,0a.34.34,0,0,1,.17.06.09.09,0,0,1,.06.1.12.12,0,0,1-.09.13.62.62,0,0,1-.26,0h-1l-.48,0h-.69l-.65,0h-1.64a.94.94,0,0,1-.34,0c-.08,0-.11-.06-.11-.13a.1.1,0,0,1,.06-.1.24.24,0,0,1,.15,0h.17l.19,0,.15,0h.16a1.74,1.74,0,0,0,1.25-.73,6.17,6.17,0,0,0,.74-1.5v0Zm3.32-5.24h4.53c.07,0,.1,0,.11,0a.26.26,0,0,0,0-.12l-2.26-6.45c-.06-.16-.12-.23-.17-.23s-.12.08-.18.25l-2.09,6.41v0h0l0,0h0a.08.08,0,0,0,0,.07l.06,0Z"/><path class="cls-2" d="M191.17,145.76V150c0,1.76,0,3.05.1,3.88a2.87,2.87,0,0,0,.42,1.57,1.77,1.77,0,0,0,.88.42,10,10,0,0,0,2,.13,12.45,12.45,0,0,0,1.7-.1,1.71,1.71,0,0,0,1.19-.61,1.89,1.89,0,0,0,.26-.39,3.25,3.25,0,0,0,.19-.44,3,3,0,0,0,.11-.31l.06-.29a.57.57,0,0,1,.07-.22.16.16,0,0,1,.14-.08.11.11,0,0,1,.12.08.94.94,0,0,1,0,.27c0,.08,0,.25,0,.51s-.07.54-.1.84-.07.38-.1.56-.08.34-.11.46a.14.14,0,0,1,0,.06.35.35,0,0,1,0,.06.63.63,0,0,1-.35.42,5,5,0,0,1-1.14.08l-2.24,0-1.7-.05-1.33-.05-1.09,0h-.12l-.21,0H189l-.18,0h-1a.69.69,0,0,1-.28,0,.13.13,0,0,1-.1-.13.14.14,0,0,1,0-.09.21.21,0,0,1,.15-.05H188l.19,0,.17,0a.62.62,0,0,0,.48-.43,3.7,3.7,0,0,0,.2-.88,17.89,17.89,0,0,0,.11-2.1c0-.89,0-1.91,0-3v-7.79c0-.61,0-1.09,0-1.46v-.07a1.89,1.89,0,0,0-.23-.92,1.16,1.16,0,0,0-.79-.43.53.53,0,0,0-.2,0l-.23,0-.2,0h-.18a.2.2,0,0,1-.13,0,.11.11,0,0,1-.06-.1.16.16,0,0,1,.09-.16,1.07,1.07,0,0,1,.29,0h.81l.46,0h.44l.65,0h.68l.71,0h1.49a1.07,1.07,0,0,1,.29,0,.16.16,0,0,1,.09.16.11.11,0,0,1-.06.1.2.2,0,0,1-.13,0h-.26l-.33,0h-.19a.93.93,0,0,0-.7.41,2.52,2.52,0,0,0-.23.94v.07c0,.37,0,.85,0,1.46v3.59Z"/><path class="cls-2" d="M22.7,178.1V171c0-.61,0-1.09,0-1.45v-.07a1.94,1.94,0,0,0-.23-.93,1.16,1.16,0,0,0-.79-.43l-.19,0-.24,0-.2,0h-.18a.28.28,0,0,1-.13,0,.13.13,0,0,1-.06-.11.14.14,0,0,1,.09-.15.75.75,0,0,1,.29,0h.8a3.31,3.31,0,0,0,.44,0h.44l.69,0h.71l.64,0H26.1a.69.69,0,0,1,.28,0,.14.14,0,0,1,.1.15.13.13,0,0,1-.06.11.31.31,0,0,1-.13,0h-.07l-.22,0a1.82,1.82,0,0,1-.31,0,.82.82,0,0,0-.65.41,2.37,2.37,0,0,0-.22,1v.07a14.21,14.21,0,0,0-.05,1.45V178a11,11,0,0,0,.51,3.87,5.65,5.65,0,0,0,1.27,2,4.81,4.81,0,0,0,.42.38,4.65,4.65,0,0,0,.43.29,4.24,4.24,0,0,0,1.31.51,7.88,7.88,0,0,0,1.42.13,5.1,5.1,0,0,0,3.75-1.71,5.44,5.44,0,0,0,1.1-2.5,17.62,17.62,0,0,0,.28-3.31V171c0-.61,0-1.09,0-1.45v-.07a1.83,1.83,0,0,0-.23-.93,1.16,1.16,0,0,0-.79-.43l-.19,0-.24,0-.2,0h-.18a.28.28,0,0,1-.13,0,.13.13,0,0,1-.06-.11.14.14,0,0,1,.1-.15.66.66,0,0,1,.28,0h1.62l.6,0h.58l.5,0h.5l.37,0h.34a.66.66,0,0,1,.28,0,.14.14,0,0,1,.1.15.13.13,0,0,1-.06.11.28.28,0,0,1-.13,0H38l-.3.06a.94.94,0,0,0-.66.42,2.44,2.44,0,0,0-.22.94v.07c0,.36,0,.84,0,1.45v6.13c0,.27,0,.53,0,.78s0,.52,0,.79a12.92,12.92,0,0,1-.54,3,5.38,5.38,0,0,1-1.59,2.5,6.26,6.26,0,0,1-.49.41l-.48.33a6.58,6.58,0,0,1-2.08.8,9.86,9.86,0,0,1-1.86.19q-.43,0-1.32-.09a6.91,6.91,0,0,1-1.86-.48,6.68,6.68,0,0,1-.89-.44,4.21,4.21,0,0,1-.82-.64,6.47,6.47,0,0,1-1.47-2.25,10.52,10.52,0,0,1-.6-4v0Z"/><path class="cls-2" d="M44.13,171.08l.31,11.38a7.57,7.57,0,0,0,.25,2,1,1,0,0,0,.67.72l.13,0h.14a2.71,2.71,0,0,0,.54.08h.38a.2.2,0,0,1,.14,0,.12.12,0,0,1,.05.1.14.14,0,0,1-.1.14,1.37,1.37,0,0,1-.33,0H44.63l-.55,0H43.5l-.51,0H41.52a1,1,0,0,1-.27,0c-.07,0-.11-.07-.11-.14a.12.12,0,0,1,0-.1.2.2,0,0,1,.14,0h.31l.4-.06.13,0,.13,0c.31-.08.5-.33.58-.76a12.44,12.44,0,0,0,.14-2.25l0-1.49V168.59a4.52,4.52,0,0,1,.06-.91c0-.17.11-.25.2-.25a.31.31,0,0,1,.2.11,1.88,1.88,0,0,1,.25.24l0,.05,0,0L44,168l.14.16c.17.2,1,1.12,2.54,2.75l5,5.4.42.44.39.44.14.14.14.14,2.81,3.08c.88,1,1.48,1.62,1.79,1.95l-.26-12.09a5.15,5.15,0,0,0-.2-1.61,1,1,0,0,0-.72-.62l-.17,0h-.16l-.49-.06h-.34c-.08,0-.14,0-.16-.05a.2.2,0,0,1,0-.11.14.14,0,0,1,.13-.15l.34,0h1.54l.58,0h.63l.45,0h1.29l.3,0a.14.14,0,0,1,.12.15.13.13,0,0,1-.07.11.29.29,0,0,1-.19.05h-.23l-.34.06a.87.87,0,0,0-.73.58,5.51,5.51,0,0,0-.15,1.53l0,1.76,0,12.13a12.06,12.06,0,0,1-.05,1.44c0,.17-.09.25-.17.25a.91.91,0,0,1-.46-.28c-.21-.18-.64-.58-1.27-1.22L55,182.82q-1.37-1.38-3-3.06l-.1-.1-.09-.1c-.26-.28-.52-.56-.78-.82l-.77-.81-.09-.09a.46.46,0,0,1-.07-.1q-2-2.18-3.75-4.1c-1.16-1.28-1.92-2.13-2.28-2.54v0Z"/><path class="cls-2" d="M68.29,174.63v4.18c0,1.15,0,2.17,0,3.07a17.82,17.82,0,0,0,.11,2.09,2.42,2.42,0,0,0,.22.88.84.84,0,0,0,.7.43.69.69,0,0,0,.2,0l.23,0,.36,0h.28c.08,0,.13,0,.15,0a.12.12,0,0,1,0,.09.14.14,0,0,1-.1.14.94.94,0,0,1-.28,0h-1.9l-.7,0H67l-.63,0H65a1,1,0,0,1-.28,0,.14.14,0,0,1-.09-.14.12.12,0,0,1,0-.09.2.2,0,0,1,.14,0h.36l.19,0a.47.47,0,0,0,.17,0,.63.63,0,0,0,.48-.43,4.22,4.22,0,0,0,.21-.88,20.88,20.88,0,0,0,.1-2.09c0-.9,0-1.91,0-3V171c0-.61,0-1.09,0-1.45v-.07a2,2,0,0,0-.22-.93.85.85,0,0,0-.59-.4l-.1,0h-.09l-.31,0H64.7a.31.31,0,0,1-.13,0,.13.13,0,0,1-.06-.11.15.15,0,0,1,.1-.15.69.69,0,0,1,.28,0h.45l.53,0h.47l.63,0h.64l.63,0h1.37a.71.71,0,0,1,.29,0,.15.15,0,0,1,.1.15.13.13,0,0,1-.06.11.31.31,0,0,1-.13,0h-.08l-.21,0a1.82,1.82,0,0,1-.31,0,.94.94,0,0,0-.65.42,2.42,2.42,0,0,0-.23.94v.07c0,.36,0,.84,0,1.45v3.59Z"/><path class="cls-2" d="M77.33,170.63l0,0,4.53,12.14c.29-.63.63-1.45,1-2.44l1.24-3.13c0-.1.07-.19.1-.27l.09-.25c.6-1.54,1.16-3,1.66-4.33s.83-2.26,1-2.74a4,4,0,0,0,.16-.49,1.76,1.76,0,0,0,.06-.41v-.08a.24.24,0,0,0,0-.08.62.62,0,0,0-.1-.22.77.77,0,0,0-.19-.16l-.19-.05a.66.66,0,0,0-.21,0l-.25,0H86l-.18,0a.12.12,0,0,1-.08-.12.14.14,0,0,1,.12-.15,1.28,1.28,0,0,1,.4,0h1.4l.58,0h.59l.47,0h.52l.32,0h.3a.78.78,0,0,1,.29,0,.13.13,0,0,1,.11.13.16.16,0,0,1-.07.13.61.61,0,0,1-.22,0l-.35,0a2,2,0,0,0-.55.15l-.13.05a.17.17,0,0,0-.1.07,2.28,2.28,0,0,0-.54.59,9.11,9.11,0,0,0-.77,1.63c-.13.34-.45,1.13-1,2.39l-1.69,4.06c-.73,1.73-1.35,3.21-1.88,4.45s-.93,2.15-1.2,2.73-.46,1-.57,1.24a1.81,1.81,0,0,1-.29.5l-.07,0h-.07a.28.28,0,0,1-.13,0l-.11-.08a2.1,2.1,0,0,1-.24-.46c-.09-.2-.21-.49-.37-.87l-1-2.44L74.69,170a3.63,3.63,0,0,0-.19-.44,3.2,3.2,0,0,0-.19-.37,1.73,1.73,0,0,0-.57-.66,2.91,2.91,0,0,0-.75-.33l-.09,0-.08,0-.43,0h-.28c-.08,0-.13,0-.16-.05a.2.2,0,0,1,0-.11c0-.08,0-.13.16-.15l.43,0h1.71l.67,0h.72l.53,0h1.35a2,2,0,0,1,.49,0c.1,0,.15.06.15.13a.15.15,0,0,1-.06.13.37.37,0,0,1-.17,0h-.2l-.21,0-.27,0a.78.78,0,0,0-.23.07.6.6,0,0,0-.21.17.37.37,0,0,0-.09.19v.11a2.4,2.4,0,0,0,.19.76c.12.35.27.75.45,1.21v0Z"/><path class="cls-2" d="M94.36,178.81V171c0-.61,0-1.09,0-1.45v-.07a1.83,1.83,0,0,0-.23-.93,1.16,1.16,0,0,0-.79-.43l-.19,0-.24,0-.2,0h-.18a.28.28,0,0,1-.13,0,.13.13,0,0,1-.06-.11.14.14,0,0,1,.1-.15.66.66,0,0,1,.28,0h.81a3.62,3.62,0,0,0,.46,0h.44l.65,0h5.76l.6-.06.41-.06.09,0,.06,0,.12,0,.09,0a.07.07,0,0,1,.07.06.33.33,0,0,1,0,.15,1.2,1.2,0,0,1,0,.24c0,.09,0,.23-.08.4a1.43,1.43,0,0,0,0,.22c0,.08,0,.16,0,.26a2.86,2.86,0,0,1,0,.32c0,.15,0,.31,0,.48a.77.77,0,0,1,0,.15.61.61,0,0,0,0,.14,2.44,2.44,0,0,1,0,.27.69.69,0,0,1,0,.2v0h0a.78.78,0,0,1-.05.14.13.13,0,0,1-.11.07.14.14,0,0,1-.14-.08.36.36,0,0,1,0-.22c0-.07,0-.15,0-.24s0-.2,0-.31l0-.15c0-.06,0-.11,0-.16a1.23,1.23,0,0,0-.42-.5,3.11,3.11,0,0,0-1.27-.31l-.61,0h-1l-1.06,0H96.5a.15.15,0,0,0-.11.06.42.42,0,0,0,0,.18v6.54a.56.56,0,0,0,0,.21.14.14,0,0,0,.12.06h1.92l1.13,0,.72,0a5.57,5.57,0,0,0,.69-.11.88.88,0,0,0,.43-.22l.2-.23a.2.2,0,0,1,.15-.08.14.14,0,0,1,.09,0,.3.3,0,0,1,0,.16,2.23,2.23,0,0,1,0,.26c0,.12,0,.29-.09.5s0,.16,0,.26,0,.19,0,.3a2.16,2.16,0,0,0,0,.29c0,.11,0,.22,0,.33s0,.4,0,.57,0,.28,0,.33v.12a.57.57,0,0,1,0,.24.12.12,0,0,1-.13.09.14.14,0,0,1-.13-.06.33.33,0,0,1,0-.15c0-.13,0-.25,0-.37a1.34,1.34,0,0,0-.08-.41.19.19,0,0,1,0-.1.36.36,0,0,0,0-.09,1,1,0,0,0-.35-.4,1.49,1.49,0,0,0-.81-.24l-.68,0c-.31,0-.63,0-1,0l-1.09,0h-.67a.17.17,0,0,0-.13,0,.2.2,0,0,0,0,.11v6.14a2,2,0,0,0,.53,1.59,4.3,4.3,0,0,0,2.22.36h.53l.61,0a4.07,4.07,0,0,0,.61-.08,3.69,3.69,0,0,0,.53-.15,1.45,1.45,0,0,0,.72-.58,3,3,0,0,0,.37-1.13,1.92,1.92,0,0,1,.08-.27.13.13,0,0,1,.13-.08.1.1,0,0,1,.12.09.68.68,0,0,1,0,.21h0v0s0,.19,0,.44-.06.5-.11.77a1.1,1.1,0,0,1,0,.25,1.06,1.06,0,0,0,0,.25c0,.11-.06.22-.08.33s0,.2,0,.26c-.08.3-.2.48-.36.52a3.88,3.88,0,0,1-1,.07l-2.33,0-1.68,0-1.15,0-.7,0h-.11l-.2,0H93a1,1,0,0,1-.29,0,.14.14,0,0,1-.09-.14.12.12,0,0,1,0-.09.2.2,0,0,1,.14,0h.36l.19,0a.47.47,0,0,0,.17,0,.62.62,0,0,0,.48-.43,4.22,4.22,0,0,0,.21-.88,20.88,20.88,0,0,0,.1-2.09c0-.9,0-1.91,0-3v0Z"/><path class="cls-2" d="M108.86,178.81V171c0-.61,0-1.09,0-1.45v-.07a1.94,1.94,0,0,0-.23-.93,1.18,1.18,0,0,0-.79-.43l-.2,0-.23,0-.2,0H107a.28.28,0,0,1-.13,0,.13.13,0,0,1-.06-.11.14.14,0,0,1,.09-.15.75.75,0,0,1,.29,0h.8a3.77,3.77,0,0,0,.47,0h.44l.65,0h.76l.79,0h2.64a11,11,0,0,1,1.72.29,4.5,4.5,0,0,1,1.57.73,3.15,3.15,0,0,1,.3.24l.32.33a4.85,4.85,0,0,1,.7,1.13,3.44,3.44,0,0,1,.32,1.53v.27a2,2,0,0,1,0,.25,6.12,6.12,0,0,1-.76,2.43,10.43,10.43,0,0,1-2.11,2.55c1,1.25,1.88,2.38,2.7,3.41s1.58,1.91,2.26,2.65a5.51,5.51,0,0,0,1.71,1.33,5.36,5.36,0,0,0,1.18.38l.58.06h.35a.25.25,0,0,1,.15,0,.12.12,0,0,1,.06.09c0,.07,0,.11-.12.14a2.2,2.2,0,0,1-.45,0h-1.68a11.45,11.45,0,0,1-1.51-.08,3.14,3.14,0,0,1-1-.32h0s0,0,0,0l-.41-.26-.38-.31a9,9,0,0,1-1.11-1.21l-1.31-1.71-.2-.25a2.69,2.69,0,0,1-.2-.27l-.14-.19a.93.93,0,0,1-.14-.22c-.42-.51-.79-1-1.13-1.5s-.61-.84-.8-1.08l0,0,0,0-.1-.05-.13,0-2.92-.07a.18.18,0,0,0-.13.07.2.2,0,0,0,0,.14v.55c0,1.15,0,2.17,0,3.07a20.35,20.35,0,0,0,.11,2.09,2.64,2.64,0,0,0,.22.88.86.86,0,0,0,.7.43.76.76,0,0,0,.21,0l.22,0,.37,0h.27a.22.22,0,0,1,.16,0,.16.16,0,0,1,0,.09.14.14,0,0,1-.09.14,1.07,1.07,0,0,1-.29,0h-1.89l-.71,0h-.56l-.61,0h-.45l-.5,0h-.43a1,1,0,0,1-.28,0,.14.14,0,0,1-.09-.14.12.12,0,0,1,0-.09.2.2,0,0,1,.14,0h.36l.19,0a.47.47,0,0,0,.17,0,.63.63,0,0,0,.48-.43,3.7,3.7,0,0,0,.2-.88,17.82,17.82,0,0,0,.11-2.09c0-.9,0-1.91,0-3v0Zm1.9-9.89v7.78a.36.36,0,0,0,0,.19c0,.05.06.08.13.12a3.23,3.23,0,0,0,.91.24,8.75,8.75,0,0,0,1.39.13h.58a2.23,2.23,0,0,0,.42-.06,3.13,3.13,0,0,0,.48-.13,2,2,0,0,0,.49-.24,3.23,3.23,0,0,0,1-1.37,5.44,5.44,0,0,0,.43-2.31,5,5,0,0,0-1.11-3.48,3.84,3.84,0,0,0-3-1.26,9.3,9.3,0,0,0-1,0,5.76,5.76,0,0,0-.63.09.28.28,0,0,0-.14.09.39.39,0,0,0,0,.2v0Z"/><path class="cls-2" d="M128.44,186a9,9,0,0,1-1.64-.14,6.25,6.25,0,0,1-1.54-.47l-.05,0h0a.46.46,0,0,1-.22-.27,2.59,2.59,0,0,1,0-.58c0-.34,0-.65,0-.95s0-.56,0-.78a3.28,3.28,0,0,1,0-.47c0-.13,0-.24,0-.32a2.13,2.13,0,0,1,.06-.28.15.15,0,0,1,.13-.1c.08,0,.13,0,.14.06a.51.51,0,0,1,0,.21c0,.11,0,.24,0,.38a4.36,4.36,0,0,0,.06.49,2.53,2.53,0,0,0,1.29,1.86,4.63,4.63,0,0,0,2.22.56,3.16,3.16,0,0,0,3.37-2.84.41.41,0,0,0,0-.16V182a4.12,4.12,0,0,0-.13-1.09,3.46,3.46,0,0,0-.41-1,6,6,0,0,0-.87-1c-.35-.35-.79-.75-1.32-1.19l-1.06-.9a9.86,9.86,0,0,1-2.22-2.29,5.4,5.4,0,0,1-.82-2,2.93,2.93,0,0,1,0-.41c0-.13,0-.27,0-.41a4,4,0,0,1,1.33-3.09,5.2,5.2,0,0,1,3.59-1.18,11.18,11.18,0,0,1,1.22.06,6.84,6.84,0,0,1,1,.18l.51.09a1.89,1.89,0,0,0,.32,0,.35.35,0,0,1,.19,0,.16.16,0,0,1,0,.13s0,.1,0,.21,0,.27,0,.48,0,.46,0,.76,0,.65,0,1.06a2.12,2.12,0,0,1,0,.42c0,.08-.07.13-.13.13a.13.13,0,0,1-.13-.08.7.7,0,0,1-.06-.23.91.91,0,0,0,0-.25l-.06-.32a2.92,2.92,0,0,0-.1-.35,1.83,1.83,0,0,0-.11-.26,1.23,1.23,0,0,0-.17-.25,1.64,1.64,0,0,0-.35-.35,3.15,3.15,0,0,0-.92-.46,4.57,4.57,0,0,0-1.53-.2,3.07,3.07,0,0,0-2.07.72,2.54,2.54,0,0,0-.85,2,4.49,4.49,0,0,0,.06.66,2.26,2.26,0,0,0,.21.6,4.93,4.93,0,0,0,.91,1.2,21.91,21.91,0,0,0,1.72,1.54l.66.5a15.54,15.54,0,0,1,2.07,1.93,6.6,6.6,0,0,1,1.07,1.7,4.71,4.71,0,0,1,.26,1,6.58,6.58,0,0,1,.07,1,5.73,5.73,0,0,1-.11,1,4.62,4.62,0,0,1-.41,1.2,5.56,5.56,0,0,1-.6.92,3.81,3.81,0,0,1-.9.83,5,5,0,0,1-1.68.75,8,8,0,0,1-1.9.22Z"/><path class="cls-2" d="M142.32,174.63v4.18c0,1.15,0,2.17,0,3.07a20.35,20.35,0,0,0,.11,2.09,2.64,2.64,0,0,0,.22.88.86.86,0,0,0,.7.43.76.76,0,0,0,.21,0l.22,0,.37,0h.27a.22.22,0,0,1,.16,0,.16.16,0,0,1,0,.09.14.14,0,0,1-.09.14,1.07,1.07,0,0,1-.29,0h-1.9l-.7,0H141l-.62,0H139a1.07,1.07,0,0,1-.29,0,.14.14,0,0,1-.09-.14.11.11,0,0,1,0-.09.2.2,0,0,1,.14,0h.36l.18,0a.43.43,0,0,0,.17,0,.63.63,0,0,0,.49-.43,5,5,0,0,0,.2-.88,20.35,20.35,0,0,0,.11-2.09c0-.9,0-1.91,0-3V171c0-.61,0-1.09-.05-1.45v-.07a2.09,2.09,0,0,0-.21-.93.89.89,0,0,0-.6-.4l-.09,0h-.1l-.31,0h-.23a.28.28,0,0,1-.13,0,.13.13,0,0,1-.06-.11.14.14,0,0,1,.09-.15.75.75,0,0,1,.29,0h.45l.52,0h.48l.62,0h.64l.63,0h1.38a.66.66,0,0,1,.28,0,.14.14,0,0,1,.1.15.13.13,0,0,1-.06.11.28.28,0,0,1-.13,0h-.07l-.22,0-.3,0a.94.94,0,0,0-.66.42,2.44,2.44,0,0,0-.22.94v.07c0,.36-.05.84-.05,1.45v3.59Z"/><path class="cls-2" d="M155.82,168.75v10.06c0,1.15,0,2.17,0,3.07a20.35,20.35,0,0,0,.11,2.09,2.41,2.41,0,0,0,.23.88.83.83,0,0,0,.7.43.64.64,0,0,0,.2,0l.22,0,.37,0h.27a.22.22,0,0,1,.16,0,.16.16,0,0,1,0,.09.14.14,0,0,1-.09.14,1,1,0,0,1-.29,0h-1.89l-.7,0h-.64l-.63,0H152.5a1.07,1.07,0,0,1-.29,0,.14.14,0,0,1-.09-.14.14.14,0,0,1,0-.09.2.2,0,0,1,.14,0h.36l.19,0a.38.38,0,0,0,.16,0,.63.63,0,0,0,.49-.43,4.27,4.27,0,0,0,.2-.88,20.35,20.35,0,0,0,.11-2.09c0-.9,0-1.91,0-3V168.75l-3.51.05a7.33,7.33,0,0,0-1.62.21,1.36,1.36,0,0,0-.8.58c-.13.2-.22.36-.28.46l-.13.27a.36.36,0,0,1-.1.19.24.24,0,0,1-.13.05.12.12,0,0,1-.09-.06.35.35,0,0,1,0-.16,2.89,2.89,0,0,1,.07-.45c0-.23.1-.49.16-.78a.17.17,0,0,1,0-.05.06.06,0,0,0,0,0c.06-.27.12-.52.16-.74s.08-.35.1-.4l0-.1a.16.16,0,0,1,0-.09,1.34,1.34,0,0,1,.07-.18.14.14,0,0,1,.1-.08.37.37,0,0,1,.16,0,1.33,1.33,0,0,0,.24.1l.27.08a1.91,1.91,0,0,0,.37.06l.29,0h.28l.77.05.54,0,8.92,0h.77l.6-.05.16,0h.15l.43-.08.24,0c.06,0,.1,0,.1.09a1.15,1.15,0,0,1,0,.2c0,.14,0,.31,0,.52s0,.42,0,.64v.31c0,.27,0,.51,0,.72s0,.35,0,.42a.43.43,0,0,1,0,.23.13.13,0,0,1-.12.07c-.07,0-.11,0-.13-.08a.84.84,0,0,1-.06-.32l0-.28a1.24,1.24,0,0,0-.64-.89,4.69,4.69,0,0,0-2.27-.39l-3-.08Z"/><path class="cls-2" d="M170.34,181.58v-2a5.9,5.9,0,0,0-.1-1.23,4.53,4.53,0,0,0-.28-.88l-.08-.18-.08-.17c-.05-.11-.29-.53-.71-1.24l-1.4-2.3,0-.07a.24.24,0,0,1,0-.07l-1.18-1.88c-.37-.59-.64-1-.82-1.29a9.6,9.6,0,0,0-.86-1.11,4.4,4.4,0,0,0-.75-.65l-.15-.09-.18-.1a2.13,2.13,0,0,0-.37-.14,1.33,1.33,0,0,0-.3,0,.38.38,0,0,1-.16,0,.14.14,0,0,1-.07-.13.13.13,0,0,1,.07-.12.41.41,0,0,1,.23-.05h1.19a.16.16,0,0,1,.09,0h1.31l.45,0h1.28a.44.44,0,0,1,.25.05.14.14,0,0,1,.06.12l0,0a.08.08,0,0,1-.07,0l-.12,0a.51.51,0,0,0-.15.07.67.67,0,0,0-.22.18.36.36,0,0,0-.08.25,1.21,1.21,0,0,0,.08.44,3.88,3.88,0,0,0,.22.48l.8,1.39,1.39,2.4c.49.86,1,1.65,1.37,2.37l.81,1.36c.11-.24.35-.69.71-1.36s.76-1.36,1.19-2.11a.56.56,0,0,1,0-.08l0-.08c.43-.74.83-1.44,1.22-2.1s.63-1.08.75-1.27a2.49,2.49,0,0,0,.32-.67,1.9,1.9,0,0,0,.09-.54.91.91,0,0,0-.09-.43.38.38,0,0,0-.29-.23l-.09,0h-.05l-.18-.08a.13.13,0,0,1-.06-.11c0-.05,0-.08.12-.1a.79.79,0,0,1,.28,0h.38a1.37,1.37,0,0,0,.28,0h.29l.38,0h.59l.69,0h1.26a.46.46,0,0,1,.21,0c.07,0,.1,0,.1.1a.14.14,0,0,1-.09.14.36.36,0,0,1-.22.05,1.63,1.63,0,0,0-.35,0,1.76,1.76,0,0,0-.41.13l-.18.08-.15.08-.3.19a1.41,1.41,0,0,0-.25.24q-.17.15-.33.33l-.38.45a12.87,12.87,0,0,0-.9,1.31c-.41.64-.86,1.36-1.33,2.13l-.09.18-.13.18c-.48.82-.93,1.59-1.33,2.31s-.67,1.2-.78,1.46a4.49,4.49,0,0,0-.26.87c0,.29-.08.56-.09.83v2.68c0,.2,0,.53,0,1s0,.92.06,1.42a2.07,2.07,0,0,0,.25.88.9.9,0,0,0,.72.43.64.64,0,0,0,.2,0l.23,0,.37,0h.27c.08,0,.13,0,.15,0a.12.12,0,0,1,0,.09.14.14,0,0,1-.1.14.94.94,0,0,1-.28,0h-1.9l-.7,0H171l-.63,0H169a1,1,0,0,1-.28,0,.14.14,0,0,1-.09-.14.12.12,0,0,1,0-.09.21.21,0,0,1,.15,0h.35l.19,0a.43.43,0,0,0,.17,0,.74.74,0,0,0,.53-.43,2.08,2.08,0,0,0,.2-.88c0-.5.06-1,.06-1.42s0-.76,0-1v0Z"/></g></svg>